<svg xmlns="http://www.w3.org/2000/svg" xmlns:xlink="http://www.w3.org/1999/xlink" width="250" zoomAndPan="magnify" viewBox="0 0 187.5 60" height="80" preserveAspectRatio="xMidYMid meet" version="1.2"><defs><clipPath id="3c00b3f54b"><path d="M 54.253906 10 L 130 10 L 130 31 L 54.253906 31 Z M 54.253906 10 "/></clipPath><clipPath id="fd69d15b83"><path d="M 98 4.417969 L 134 4.417969 L 134 37.324219 L 98 37.324219 Z M 98 4.417969 "/></clipPath><clipPath id="26d223fa91"><path d="M 42 49.335938 L 46.4375 49.335938 L 46.4375 50 L 42 50 Z M 42 49.335938 "/></clipPath><clipPath id="348080cb88"><path d="M 39 50 L 46.4375 50 L 46.4375 51 L 39 51 Z M 39 50 "/></clipPath><clipPath id="75404551be"><path d="M 37 51 L 46.4375 51 L 46.4375 52 L 37 52 Z M 37 51 "/></clipPath><clipPath id="4d5832ac5c"><path d="M 35 52 L 46.4375 52 L 46.4375 53 L 35 53 Z M 35 52 "/></clipPath><clipPath id="22a5169fa2"><path d="M 33.78125 53 L 46.4375 53 L 46.4375 53.550781 L 33.78125 53.550781 Z M 33.78125 53 "/></clipPath><clipPath id="5b1236dc9a"><path d="M 137.234375 49.335938 L 142 49.335938 L 142 50 L 137.234375 50 Z M 137.234375 49.335938 "/></clipPath><clipPath id="dad6593ec1"><path d="M 137.234375 50 L 144 50 L 144 51 L 137.234375 51 Z M 137.234375 50 "/></clipPath><clipPath id="d47ea50cc8"><path d="M 137.234375 51 L 146 51 L 146 52 L 137.234375 52 Z M 137.234375 51 "/></clipPath><clipPath id="ffc4458e6f"><path d="M 137.234375 52 L 148 52 L 148 53 L 137.234375 53 Z M 137.234375 52 "/></clipPath><clipPath id="d9c6900cc5"><path d="M 137.234375 53 L 149.6875 53 L 149.6875 53.550781 L 137.234375 53.550781 Z M 137.234375 53 "/></clipPath></defs><g id="25b91bc196"><g clip-rule="nonzero" clip-path="url(#3c00b3f54b)"><path style=" stroke:none;fill-rule:nonzero;fill:#ffffff;fill-opacity:1;" d="M 125.476562 21.886719 L 121.839844 10.746094 L 119.53125 26.261719 L 116.402344 16.316406 L 114.875 22.132812 L 113.734375 20.25 L 111.78125 21.890625 L 54.347656 21.898438 L 54.3125 22.941406 L 112.363281 22.949219 L 113.511719 21.90625 L 115.28125 24.824219 L 116.488281 20.039062 L 119.910156 30.910156 L 122.210938 15.386719 L 124.582031 22.910156 L 129.855469 22.933594 L 129.871094 21.886719 L 125.476562 21.886719 "/></g><g clip-rule="nonzero" clip-path="url(#fd69d15b83)"><path style=" stroke:none;fill-rule:nonzero;fill:#ffffff;fill-opacity:1;" d="M 99.636719 10.484375 C 99.878906 10 100.164062 9.542969 100.480469 9.109375 C 100.804688 8.683594 101.15625 8.28125 101.53125 7.910156 C 101.910156 7.550781 102.3125 7.195312 102.753906 6.890625 C 103.195312 6.589844 103.664062 6.320312 104.152344 6.109375 C 104.640625 5.898438 105.144531 5.730469 105.664062 5.613281 C 107.730469 5.148438 109.949219 5.421875 111.90625 6.460938 C 112.394531 6.726562 112.867188 7.035156 113.308594 7.390625 C 113.753906 7.75 114.164062 8.160156 114.542969 8.609375 C 114.632812 8.71875 114.722656 8.828125 114.808594 8.945312 C 114.964844 8.691406 115.136719 8.445312 115.3125 8.210938 C 115.417969 8.085938 115.511719 7.949219 115.621094 7.832031 L 115.945312 7.46875 L 116.289062 7.128906 C 116.402344 7.011719 116.527344 6.914062 116.648438 6.808594 C 117.136719 6.394531 117.660156 6.03125 118.210938 5.726562 C 119.308594 5.125 120.503906 4.722656 121.734375 4.578125 C 122.960938 4.417969 124.222656 4.507812 125.457031 4.832031 C 126.070312 5.003906 126.671875 5.238281 127.253906 5.53125 C 127.835938 5.820312 128.402344 6.207031 128.894531 6.589844 C 129.140625 6.773438 129.386719 6.988281 129.628906 7.199219 L 129.988281 7.535156 C 130.105469 7.648438 130.214844 7.773438 130.332031 7.890625 C 130.78125 8.378906 131.199219 8.917969 131.570312 9.5 C 132.304688 10.675781 132.839844 12.039062 133.078125 13.441406 C 133.148438 13.789062 133.183594 14.140625 133.222656 14.492188 C 133.246094 14.84375 133.269531 15.199219 133.269531 15.535156 C 133.269531 16.21875 133.230469 16.898438 133.132812 17.5625 C 133.042969 18.226562 132.90625 18.875 132.738281 19.503906 C 132.5625 20.132812 132.359375 20.742188 132.125 21.332031 C 131.652344 22.507812 131.082031 23.601562 130.441406 24.617188 C 130.121094 25.125 129.78125 25.613281 129.4375 26.089844 C 129.085938 26.558594 128.730469 27.023438 128.355469 27.464844 C 127.984375 27.90625 127.605469 28.335938 127.21875 28.753906 C 126.824219 29.167969 126.429688 29.570312 126.023438 29.960938 C 124.402344 31.523438 122.699219 32.941406 120.855469 34.105469 C 118.207031 35.78125 114.964844 37.179688 114.898438 37.109375 C 114.804688 37.007812 134.585938 20.042969 126.511719 9.882812 C 126.1875 9.585938 125.894531 9.339844 125.546875 9.136719 C 125.207031 8.929688 124.84375 8.753906 124.460938 8.617188 C 122.933594 8.078125 121.140625 8.160156 119.601562 8.859375 C 116.582031 10.578125 115.558594 13.617188 115.042969 13.648438 C 114.523438 13.675781 113.734375 10.230469 110.835938 8.570312 C 109.425781 7.628906 107.65625 7.199219 105.941406 7.410156 C 105.511719 7.464844 105.085938 7.5625 104.671875 7.6875 C 104.253906 7.816406 103.851562 7.992188 103.460938 8.199219 C 103.070312 8.410156 102.703125 8.671875 102.332031 8.957031 C 101.972656 9.246094 101.628906 9.558594 101.3125 9.902344 C 100.996094 10.246094 100.714844 10.621094 100.457031 11.019531 C 99.261719 12.949219 99.054688 15.410156 98.9375 15.414062 C 98.808594 15.421875 98.800781 12.140625 99.636719 10.484375 "/></g><g style="fill:#ffffff;fill-opacity:1;"><g transform="translate(26.042112, 44.946579)"><path style="stroke:none" d="M 4.359375 -6.09375 L 4.359375 -1.953125 C 4.359375 -1.304688 4.175781 -0.804688 3.8125 -0.453125 C 3.457031 -0.109375 2.972656 0.0625 2.359375 0.0625 C 1.710938 0.0625 1.191406 -0.117188 0.796875 -0.484375 C 0.410156 -0.847656 0.21875 -1.367188 0.21875 -2.046875 L 1.703125 -2.046875 C 1.703125 -1.785156 1.753906 -1.585938 1.859375 -1.453125 C 1.960938 -1.328125 2.113281 -1.265625 2.3125 -1.265625 C 2.488281 -1.265625 2.625 -1.320312 2.71875 -1.4375 C 2.820312 -1.550781 2.875 -1.722656 2.875 -1.953125 L 2.875 -6.09375 Z M 4.359375 -6.09375 "/></g></g><g style="fill:#ffffff;fill-opacity:1;"><g transform="translate(31.062008, 44.946579)"><path style="stroke:none" d="M 4.328125 -1.078125 L 2.0625 -1.078125 L 1.6875 0 L 0.140625 0 L 2.34375 -6.09375 L 4.0625 -6.09375 L 6.265625 0 L 4.703125 0 Z M 3.953125 -2.21875 L 3.203125 -4.453125 L 2.453125 -2.21875 Z M 3.953125 -2.21875 "/></g></g><g style="fill:#ffffff;fill-opacity:1;"><g transform="translate(37.462807, 44.946579)"><path style="stroke:none" d="M 7.4375 -6.09375 L 7.4375 0 L 5.953125 0 L 5.953125 -3.65625 L 4.59375 0 L 3.390625 0 L 2.03125 -3.671875 L 2.03125 0 L 0.53125 0 L 0.53125 -6.09375 L 2.296875 -6.09375 L 4 -1.875 L 5.703125 -6.09375 Z M 7.4375 -6.09375 "/></g></g><g style="fill:#ffffff;fill-opacity:1;"><g transform="translate(45.43558, 44.946579)"><path style="stroke:none" d="M 4.328125 -1.078125 L 2.0625 -1.078125 L 1.6875 0 L 0.140625 0 L 2.34375 -6.09375 L 4.0625 -6.09375 L 6.265625 0 L 4.703125 0 Z M 3.953125 -2.21875 L 3.203125 -4.453125 L 2.453125 -2.21875 Z M 3.953125 -2.21875 "/></g></g><g style="fill:#ffffff;fill-opacity:1;"><g transform="translate(51.836379, 44.946579)"><path style="stroke:none" d=""/></g></g><g style="fill:#ffffff;fill-opacity:1;"><g transform="translate(53.677584, 44.946579)"><path style="stroke:none" d="M 7.4375 -6.09375 L 7.4375 0 L 5.953125 0 L 5.953125 -3.65625 L 4.59375 0 L 3.390625 0 L 2.03125 -3.671875 L 2.03125 0 L 0.53125 0 L 0.53125 -6.09375 L 2.296875 -6.09375 L 4 -1.875 L 5.703125 -6.09375 Z M 7.4375 -6.09375 "/></g></g><g style="fill:#ffffff;fill-opacity:1;"><g transform="translate(61.650358, 44.946579)"><path style="stroke:none" d="M 2.03125 -4.90625 L 2.03125 -3.671875 L 4.015625 -3.671875 L 4.015625 -2.53125 L 2.03125 -2.53125 L 2.03125 -1.1875 L 4.28125 -1.1875 L 4.28125 0 L 0.53125 0 L 0.53125 -6.09375 L 4.28125 -6.09375 L 4.28125 -4.90625 Z M 2.03125 -4.90625 "/></g></g><g style="fill:#ffffff;fill-opacity:1;"><g transform="translate(66.348913, 44.946579)"><path style="stroke:none" d="M 2.828125 -6.09375 C 3.460938 -6.09375 4.019531 -5.960938 4.5 -5.703125 C 4.988281 -5.453125 5.363281 -5.097656 5.625 -4.640625 C 5.882812 -4.179688 6.015625 -3.648438 6.015625 -3.046875 C 6.015625 -2.453125 5.882812 -1.921875 5.625 -1.453125 C 5.363281 -0.992188 4.988281 -0.632812 4.5 -0.375 C 4.019531 -0.125 3.460938 0 2.828125 0 L 0.53125 0 L 0.53125 -6.09375 Z M 2.734375 -1.28125 C 3.296875 -1.28125 3.734375 -1.429688 4.046875 -1.734375 C 4.359375 -2.046875 4.515625 -2.484375 4.515625 -3.046875 C 4.515625 -3.609375 4.359375 -4.046875 4.046875 -4.359375 C 3.734375 -4.671875 3.296875 -4.828125 2.734375 -4.828125 L 2.03125 -4.828125 L 2.03125 -1.28125 Z M 2.734375 -1.28125 "/></g></g><g style="fill:#ffffff;fill-opacity:1;"><g transform="translate(72.662865, 44.946579)"><path style="stroke:none" d="M 2.03125 -6.09375 L 2.03125 0 L 0.53125 0 L 0.53125 -6.09375 Z M 2.03125 -6.09375 "/></g></g><g style="fill:#ffffff;fill-opacity:1;"><g transform="translate(75.224921, 44.946579)"><path style="stroke:none" d="M 0.28125 -3.0625 C 0.28125 -3.664062 0.410156 -4.203125 0.671875 -4.671875 C 0.929688 -5.140625 1.296875 -5.503906 1.765625 -5.765625 C 2.234375 -6.035156 2.765625 -6.171875 3.359375 -6.171875 C 4.078125 -6.171875 4.691406 -5.976562 5.203125 -5.59375 C 5.722656 -5.207031 6.070312 -4.6875 6.25 -4.03125 L 4.609375 -4.03125 C 4.492188 -4.28125 4.320312 -4.472656 4.09375 -4.609375 C 3.875 -4.742188 3.625 -4.8125 3.34375 -4.8125 C 2.882812 -4.8125 2.507812 -4.648438 2.21875 -4.328125 C 1.9375 -4.015625 1.796875 -3.59375 1.796875 -3.0625 C 1.796875 -2.53125 1.9375 -2.101562 2.21875 -1.78125 C 2.507812 -1.457031 2.882812 -1.296875 3.34375 -1.296875 C 3.625 -1.296875 3.875 -1.363281 4.09375 -1.5 C 4.320312 -1.632812 4.492188 -1.828125 4.609375 -2.078125 L 6.25 -2.078125 C 6.070312 -1.421875 5.722656 -0.898438 5.203125 -0.515625 C 4.691406 -0.140625 4.078125 0.046875 3.359375 0.046875 C 2.765625 0.046875 2.234375 -0.0820312 1.765625 -0.34375 C 1.296875 -0.613281 0.929688 -0.984375 0.671875 -1.453125 C 0.410156 -1.921875 0.28125 -2.457031 0.28125 -3.0625 Z M 0.28125 -3.0625 "/></g></g><g style="fill:#ffffff;fill-opacity:1;"><g transform="translate(81.842845, 44.946579)"><path style="stroke:none" d="M 4.328125 -1.078125 L 2.0625 -1.078125 L 1.6875 0 L 0.140625 0 L 2.34375 -6.09375 L 4.0625 -6.09375 L 6.265625 0 L 4.703125 0 Z M 3.953125 -2.21875 L 3.203125 -4.453125 L 2.453125 -2.21875 Z M 3.953125 -2.21875 "/></g></g><g style="fill:#ffffff;fill-opacity:1;"><g transform="translate(88.243643, 44.946579)"><path style="stroke:none" d="M 2.03125 -1.140625 L 3.96875 -1.140625 L 3.96875 0 L 0.53125 0 L 0.53125 -6.09375 L 2.03125 -6.09375 Z M 2.03125 -1.140625 "/></g></g><g style="fill:#ffffff;fill-opacity:1;"><g transform="translate(92.386362, 44.946579)"><path style="stroke:none" d=""/></g></g><g style="fill:#ffffff;fill-opacity:1;"><g transform="translate(94.227567, 44.946579)"><path style="stroke:none" d="M 2.03125 -4.90625 L 2.03125 -3.671875 L 4.015625 -3.671875 L 4.015625 -2.53125 L 2.03125 -2.53125 L 2.03125 -1.1875 L 4.28125 -1.1875 L 4.28125 0 L 0.53125 0 L 0.53125 -6.09375 L 4.28125 -6.09375 L 4.28125 -4.90625 Z M 2.03125 -4.90625 "/></g></g><g style="fill:#ffffff;fill-opacity:1;"><g transform="translate(98.926122, 44.946579)"><path style="stroke:none" d="M 4.875 1.046875 L 4.09375 -0.015625 C 3.863281 0.0351562 3.640625 0.0625 3.421875 0.0625 C 2.847656 0.0625 2.320312 -0.0664062 1.84375 -0.328125 C 1.363281 -0.597656 0.984375 -0.972656 0.703125 -1.453125 C 0.421875 -1.929688 0.28125 -2.46875 0.28125 -3.0625 C 0.28125 -3.664062 0.421875 -4.203125 0.703125 -4.671875 C 0.984375 -5.148438 1.363281 -5.519531 1.84375 -5.78125 C 2.320312 -6.050781 2.847656 -6.1875 3.421875 -6.1875 C 3.992188 -6.1875 4.519531 -6.050781 5 -5.78125 C 5.476562 -5.519531 5.851562 -5.148438 6.125 -4.671875 C 6.40625 -4.203125 6.546875 -3.664062 6.546875 -3.0625 C 6.546875 -2.539062 6.4375 -2.0625 6.21875 -1.625 C 6.007812 -1.195312 5.71875 -0.84375 5.34375 -0.5625 L 6.6875 1.046875 Z M 1.8125 -3.0625 C 1.8125 -2.53125 1.957031 -2.101562 2.25 -1.78125 C 2.539062 -1.457031 2.929688 -1.296875 3.421875 -1.296875 C 3.910156 -1.296875 4.300781 -1.457031 4.59375 -1.78125 C 4.882812 -2.101562 5.03125 -2.53125 5.03125 -3.0625 C 5.03125 -3.601562 4.882812 -4.035156 4.59375 -4.359375 C 4.300781 -4.679688 3.910156 -4.84375 3.421875 -4.84375 C 2.929688 -4.84375 2.539062 -4.679688 2.25 -4.359375 C 1.957031 -4.046875 1.8125 -3.613281 1.8125 -3.0625 Z M 1.8125 -3.0625 "/></g></g><g style="fill:#ffffff;fill-opacity:1;"><g transform="translate(105.769853, 44.946579)"><path style="stroke:none" d="M 2 -6.09375 L 2 -2.453125 C 2 -2.085938 2.085938 -1.804688 2.265625 -1.609375 C 2.441406 -1.410156 2.707031 -1.3125 3.0625 -1.3125 C 3.40625 -1.3125 3.671875 -1.410156 3.859375 -1.609375 C 4.046875 -1.804688 4.140625 -2.085938 4.140625 -2.453125 L 4.140625 -6.09375 L 5.625 -6.09375 L 5.625 -2.453125 C 5.625 -1.910156 5.503906 -1.453125 5.265625 -1.078125 C 5.035156 -0.703125 4.722656 -0.414062 4.328125 -0.21875 C 3.941406 -0.03125 3.507812 0.0625 3.03125 0.0625 C 2.550781 0.0625 2.117188 -0.03125 1.734375 -0.21875 C 1.359375 -0.40625 1.0625 -0.6875 0.84375 -1.0625 C 0.625 -1.445312 0.515625 -1.910156 0.515625 -2.453125 L 0.515625 -6.09375 Z M 2 -6.09375 "/></g></g><g style="fill:#ffffff;fill-opacity:1;"><g transform="translate(111.892734, 44.946579)"><path style="stroke:none" d="M 2.03125 -6.09375 L 2.03125 0 L 0.53125 0 L 0.53125 -6.09375 Z M 2.03125 -6.09375 "/></g></g><g style="fill:#ffffff;fill-opacity:1;"><g transform="translate(114.45479, 44.946579)"><path style="stroke:none" d="M 5.1875 -4.140625 C 5.1875 -3.785156 5.101562 -3.460938 4.9375 -3.171875 C 4.78125 -2.878906 4.53125 -2.640625 4.1875 -2.453125 C 3.851562 -2.273438 3.4375 -2.1875 2.9375 -2.1875 L 2.03125 -2.1875 L 2.03125 0 L 0.53125 0 L 0.53125 -6.09375 L 2.9375 -6.09375 C 3.425781 -6.09375 3.835938 -6.007812 4.171875 -5.84375 C 4.515625 -5.675781 4.769531 -5.441406 4.9375 -5.140625 C 5.101562 -4.847656 5.1875 -4.515625 5.1875 -4.140625 Z M 2.828125 -3.375 C 3.109375 -3.375 3.316406 -3.4375 3.453125 -3.5625 C 3.597656 -3.695312 3.671875 -3.890625 3.671875 -4.140625 C 3.671875 -4.378906 3.597656 -4.566406 3.453125 -4.703125 C 3.316406 -4.835938 3.109375 -4.90625 2.828125 -4.90625 L 2.03125 -4.90625 L 2.03125 -3.375 Z M 2.828125 -3.375 "/></g></g><g style="fill:#ffffff;fill-opacity:1;"><g transform="translate(119.874195, 44.946579)"><path style="stroke:none" d="M 7.4375 -6.09375 L 7.4375 0 L 5.953125 0 L 5.953125 -3.65625 L 4.59375 0 L 3.390625 0 L 2.03125 -3.671875 L 2.03125 0 L 0.53125 0 L 0.53125 -6.09375 L 2.296875 -6.09375 L 4 -1.875 L 5.703125 -6.09375 Z M 7.4375 -6.09375 "/></g></g><g style="fill:#ffffff;fill-opacity:1;"><g transform="translate(127.846969, 44.946579)"><path style="stroke:none" d="M 2.03125 -4.90625 L 2.03125 -3.671875 L 4.015625 -3.671875 L 4.015625 -2.53125 L 2.03125 -2.53125 L 2.03125 -1.1875 L 4.28125 -1.1875 L 4.28125 0 L 0.53125 0 L 0.53125 -6.09375 L 4.28125 -6.09375 L 4.28125 -4.90625 Z M 2.03125 -4.90625 "/></g></g><g style="fill:#ffffff;fill-opacity:1;"><g transform="translate(132.545518, 44.946579)"><path style="stroke:none" d="M 6 0 L 4.515625 0 L 2.03125 -3.765625 L 2.03125 0 L 0.53125 0 L 0.53125 -6.09375 L 2.03125 -6.09375 L 4.515625 -2.3125 L 4.515625 -6.09375 L 6 -6.09375 Z M 6 0 "/></g></g><g style="fill:#ffffff;fill-opacity:1;"><g transform="translate(139.076601, 44.946579)"><path style="stroke:none" d="M 4.921875 -6.09375 L 4.921875 -4.90625 L 3.3125 -4.90625 L 3.3125 0 L 1.828125 0 L 1.828125 -4.90625 L 0.203125 -4.90625 L 0.203125 -6.09375 Z M 4.921875 -6.09375 "/></g></g><g style="fill:#ffffff;fill-opacity:1;"><g transform="translate(144.209401, 44.946579)"><path style="stroke:none" d=""/></g></g><g style="fill:#ffffff;fill-opacity:1;"><g transform="translate(146.050601, 44.946579)"><path style="stroke:none" d="M 2.03125 -1.140625 L 3.96875 -1.140625 L 3.96875 0 L 0.53125 0 L 0.53125 -6.09375 L 2.03125 -6.09375 Z M 2.03125 -1.140625 "/></g></g><g style="fill:#ffffff;fill-opacity:1;"><g transform="translate(150.193325, 44.946579)"><path style="stroke:none" d="M 2.03125 -1.140625 L 3.96875 -1.140625 L 3.96875 0 L 0.53125 0 L 0.53125 -6.09375 L 2.03125 -6.09375 Z M 2.03125 -1.140625 "/></g></g><g style="fill:#ffffff;fill-opacity:1;"><g transform="translate(154.336049, 44.946579)"><path style="stroke:none" d="M 0.28125 -3.0625 C 0.28125 -3.664062 0.410156 -4.203125 0.671875 -4.671875 C 0.929688 -5.140625 1.296875 -5.503906 1.765625 -5.765625 C 2.234375 -6.035156 2.765625 -6.171875 3.359375 -6.171875 C 4.078125 -6.171875 4.691406 -5.976562 5.203125 -5.59375 C 5.722656 -5.207031 6.070312 -4.6875 6.25 -4.03125 L 4.609375 -4.03125 C 4.492188 -4.28125 4.320312 -4.472656 4.09375 -4.609375 C 3.875 -4.742188 3.625 -4.8125 3.34375 -4.8125 C 2.882812 -4.8125 2.507812 -4.648438 2.21875 -4.328125 C 1.9375 -4.015625 1.796875 -3.59375 1.796875 -3.0625 C 1.796875 -2.53125 1.9375 -2.101562 2.21875 -1.78125 C 2.507812 -1.457031 2.882812 -1.296875 3.34375 -1.296875 C 3.625 -1.296875 3.875 -1.363281 4.09375 -1.5 C 4.320312 -1.632812 4.492188 -1.828125 4.609375 -2.078125 L 6.25 -2.078125 C 6.070312 -1.421875 5.722656 -0.898438 5.203125 -0.515625 C 4.691406 -0.140625 4.078125 0.046875 3.359375 0.046875 C 2.765625 0.046875 2.234375 -0.0820312 1.765625 -0.34375 C 1.296875 -0.613281 0.929688 -0.984375 0.671875 -1.453125 C 0.410156 -1.921875 0.28125 -2.457031 0.28125 -3.0625 Z M 0.28125 -3.0625 "/></g></g><g clip-rule="nonzero" clip-path="url(#26d223fa91)"><path style=" stroke:none;fill-rule:nonzero;fill:#ffffff;fill-opacity:1;" d="M 42.21875 49.691406 L 46.265625 49.691406 C 46.359375 49.691406 46.4375 49.613281 46.4375 49.519531 C 46.4375 49.421875 46.359375 49.34375 46.265625 49.34375 L 42.21875 49.34375 C 42.121094 49.34375 42.046875 49.421875 42.046875 49.519531 C 42.046875 49.613281 42.121094 49.691406 42.21875 49.691406 "/></g><g clip-rule="nonzero" clip-path="url(#348080cb88)"><path style=" stroke:none;fill-rule:nonzero;fill:#ffffff;fill-opacity:1;" d="M 40.109375 50.636719 L 46.265625 50.636719 C 46.359375 50.636719 46.4375 50.558594 46.4375 50.464844 C 46.4375 50.367188 46.359375 50.292969 46.265625 50.292969 L 40.109375 50.292969 C 40.011719 50.292969 39.9375 50.367188 39.9375 50.464844 C 39.9375 50.558594 40.011719 50.636719 40.109375 50.636719 "/></g><g clip-rule="nonzero" clip-path="url(#75404551be)"><path style=" stroke:none;fill-rule:nonzero;fill:#ffffff;fill-opacity:1;" d="M 38.058594 51.582031 L 46.265625 51.582031 C 46.359375 51.582031 46.4375 51.503906 46.4375 51.410156 C 46.4375 51.3125 46.359375 51.238281 46.265625 51.238281 L 38.058594 51.238281 C 37.960938 51.238281 37.882812 51.3125 37.882812 51.410156 C 37.882812 51.503906 37.960938 51.582031 38.058594 51.582031 "/></g><g clip-rule="nonzero" clip-path="url(#4d5832ac5c)"><path style=" stroke:none;fill-rule:nonzero;fill:#ffffff;fill-opacity:1;" d="M 36.003906 52.527344 L 46.265625 52.527344 C 46.359375 52.527344 46.4375 52.453125 46.4375 52.355469 C 46.4375 52.261719 46.359375 52.183594 46.265625 52.183594 L 36.003906 52.183594 C 35.910156 52.183594 35.832031 52.261719 35.832031 52.355469 C 35.832031 52.453125 35.910156 52.527344 36.003906 52.527344 "/></g><g clip-rule="nonzero" clip-path="url(#22a5169fa2)"><path style=" stroke:none;fill-rule:nonzero;fill:#ffffff;fill-opacity:1;" d="M 33.953125 53.472656 L 46.265625 53.472656 C 46.359375 53.472656 46.4375 53.398438 46.4375 53.300781 C 46.4375 53.207031 46.359375 53.128906 46.265625 53.128906 L 33.953125 53.128906 C 33.859375 53.128906 33.78125 53.207031 33.78125 53.300781 C 33.78125 53.398438 33.859375 53.472656 33.953125 53.472656 "/></g><g clip-rule="nonzero" clip-path="url(#5b1236dc9a)"><path style=" stroke:none;fill-rule:nonzero;fill:#ffffff;fill-opacity:1;" d="M 141.25 49.691406 L 137.203125 49.691406 C 137.105469 49.691406 137.027344 49.613281 137.027344 49.519531 C 137.027344 49.421875 137.105469 49.34375 137.203125 49.34375 L 141.25 49.34375 C 141.34375 49.34375 141.421875 49.421875 141.421875 49.519531 C 141.421875 49.613281 141.34375 49.691406 141.25 49.691406 "/></g><g clip-rule="nonzero" clip-path="url(#dad6593ec1)"><path style=" stroke:none;fill-rule:nonzero;fill:#ffffff;fill-opacity:1;" d="M 143.359375 50.636719 L 137.203125 50.636719 C 137.105469 50.636719 137.027344 50.558594 137.027344 50.464844 C 137.027344 50.367188 137.105469 50.292969 137.203125 50.292969 L 143.359375 50.292969 C 143.453125 50.292969 143.53125 50.367188 143.53125 50.464844 C 143.53125 50.558594 143.453125 50.636719 143.359375 50.636719 "/></g><g clip-rule="nonzero" clip-path="url(#d47ea50cc8)"><path style=" stroke:none;fill-rule:nonzero;fill:#ffffff;fill-opacity:1;" d="M 145.410156 51.582031 L 137.203125 51.582031 C 137.105469 51.582031 137.027344 51.503906 137.027344 51.410156 C 137.027344 51.3125 137.105469 51.238281 137.203125 51.238281 L 145.410156 51.238281 C 145.503906 51.238281 145.582031 51.3125 145.582031 51.410156 C 145.582031 51.503906 145.503906 51.582031 145.410156 51.582031 "/></g><g clip-rule="nonzero" clip-path="url(#ffc4458e6f)"><path style=" stroke:none;fill-rule:nonzero;fill:#ffffff;fill-opacity:1;" d="M 147.460938 52.527344 L 137.203125 52.527344 C 137.105469 52.527344 137.027344 52.453125 137.027344 52.355469 C 137.027344 52.261719 137.105469 52.183594 137.203125 52.183594 L 147.460938 52.183594 C 147.558594 52.183594 147.632812 52.261719 147.632812 52.355469 C 147.632812 52.453125 147.558594 52.527344 147.460938 52.527344 "/></g><g clip-rule="nonzero" clip-path="url(#d9c6900cc5)"><path style=" stroke:none;fill-rule:nonzero;fill:#ffffff;fill-opacity:1;" d="M 149.511719 53.472656 L 137.203125 53.472656 C 137.105469 53.472656 137.027344 53.398438 137.027344 53.300781 C 137.027344 53.207031 137.105469 53.128906 137.203125 53.128906 L 149.511719 53.128906 C 149.609375 53.128906 149.6875 53.207031 149.6875 53.300781 C 149.6875 53.398438 149.609375 53.472656 149.511719 53.472656 "/></g><g style="fill:#ffffff;fill-opacity:1;"><g transform="translate(48.54431, 53.640518)"><path style="stroke:none" d="M 2.046875 -4.828125 C 2.566406 -4.828125 3.019531 -4.726562 3.40625 -4.53125 C 3.789062 -4.34375 4.085938 -4.066406 4.296875 -3.703125 C 4.503906 -3.335938 4.609375 -2.90625 4.609375 -2.40625 C 4.609375 -1.914062 4.503906 -1.488281 4.296875 -1.125 C 4.085938 -0.757812 3.789062 -0.476562 3.40625 -0.28125 C 3.019531 -0.09375 2.566406 0 2.046875 0 L 0.53125 0 L 0.53125 -4.828125 Z M 2.046875 -0.515625 C 2.660156 -0.515625 3.132812 -0.679688 3.46875 -1.015625 C 3.800781 -1.347656 3.96875 -1.8125 3.96875 -2.40625 C 3.96875 -3.007812 3.800781 -3.476562 3.46875 -3.8125 C 3.132812 -4.15625 2.660156 -4.328125 2.046875 -4.328125 L 1.171875 -4.328125 L 1.171875 -0.515625 Z M 2.046875 -0.515625 "/></g></g><g style="fill:#ffffff;fill-opacity:1;"><g transform="translate(53.443713, 53.640518)"><path style="stroke:none" d="M 1.171875 -4.328125 L 1.171875 -2.703125 L 2.921875 -2.703125 L 2.921875 -2.1875 L 1.171875 -2.1875 L 1.171875 -0.515625 L 3.140625 -0.515625 L 3.140625 0 L 0.53125 0 L 0.53125 -4.84375 L 3.140625 -4.84375 L 3.140625 -4.328125 Z M 1.171875 -4.328125 "/></g></g><g style="fill:#ffffff;fill-opacity:1;"><g transform="translate(56.998725, 53.640518)"><path style="stroke:none" d="M 1.171875 -0.515625 L 2.859375 -0.515625 L 2.859375 0 L 0.53125 0 L 0.53125 -4.828125 L 1.171875 -4.828125 Z M 1.171875 -0.515625 "/></g></g><g style="fill:#ffffff;fill-opacity:1;"><g transform="translate(59.992421, 53.640518)"><path style="stroke:none" d="M 1.171875 -4.828125 L 1.171875 0 L 0.53125 0 L 0.53125 -4.828125 Z M 1.171875 -4.828125 "/></g></g><g style="fill:#ffffff;fill-opacity:1;"><g transform="translate(61.697162, 53.640518)"><path style="stroke:none" d="M 4.53125 -4.828125 L 2.703125 0 L 1.984375 0 L 0.15625 -4.828125 L 0.828125 -4.828125 L 2.34375 -0.671875 L 3.859375 -4.828125 Z M 4.53125 -4.828125 "/></g></g><g style="fill:#ffffff;fill-opacity:1;"><g transform="translate(66.38174, 53.640518)"><path style="stroke:none" d="M 1.171875 -4.328125 L 1.171875 -2.703125 L 2.921875 -2.703125 L 2.921875 -2.1875 L 1.171875 -2.1875 L 1.171875 -0.515625 L 3.140625 -0.515625 L 3.140625 0 L 0.53125 0 L 0.53125 -4.84375 L 3.140625 -4.84375 L 3.140625 -4.328125 Z M 1.171875 -4.328125 "/></g></g><g style="fill:#ffffff;fill-opacity:1;"><g transform="translate(69.936751, 53.640518)"><path style="stroke:none" d="M 3.078125 0 L 1.921875 -1.984375 L 1.171875 -1.984375 L 1.171875 0 L 0.53125 0 L 0.53125 -4.828125 L 2.09375 -4.828125 C 2.457031 -4.828125 2.765625 -4.765625 3.015625 -4.640625 C 3.273438 -4.515625 3.46875 -4.347656 3.59375 -4.140625 C 3.71875 -3.929688 3.78125 -3.6875 3.78125 -3.40625 C 3.78125 -3.070312 3.679688 -2.78125 3.484375 -2.53125 C 3.296875 -2.28125 3.007812 -2.113281 2.625 -2.03125 L 3.84375 0 Z M 1.171875 -2.484375 L 2.09375 -2.484375 C 2.4375 -2.484375 2.691406 -2.566406 2.859375 -2.734375 C 3.035156 -2.898438 3.125 -3.125 3.125 -3.40625 C 3.125 -3.695312 3.035156 -3.921875 2.859375 -4.078125 C 2.691406 -4.234375 2.4375 -4.3125 2.09375 -4.3125 L 1.171875 -4.3125 Z M 1.171875 -2.484375 "/></g></g><g style="fill:#ffffff;fill-opacity:1;"><g transform="translate(74.150102, 53.640518)"><path style="stroke:none" d="M 1.171875 -4.828125 L 1.171875 0 L 0.53125 0 L 0.53125 -4.828125 Z M 1.171875 -4.828125 "/></g></g><g style="fill:#ffffff;fill-opacity:1;"><g transform="translate(75.854843, 53.640518)"><path style="stroke:none" d="M 4.34375 0 L 3.703125 0 L 1.171875 -3.84375 L 1.171875 0 L 0.53125 0 L 0.53125 -4.84375 L 1.171875 -4.84375 L 3.703125 -1 L 3.703125 -4.84375 L 4.34375 -4.84375 Z M 4.34375 0 "/></g></g><g style="fill:#ffffff;fill-opacity:1;"><g transform="translate(80.726529, 53.640518)"><path style="stroke:none" d="M 4.203125 -3.4375 C 4.066406 -3.71875 3.867188 -3.9375 3.609375 -4.09375 C 3.359375 -4.25 3.0625 -4.328125 2.71875 -4.328125 C 2.382812 -4.328125 2.082031 -4.25 1.8125 -4.09375 C 1.539062 -3.9375 1.328125 -3.710938 1.171875 -3.421875 C 1.015625 -3.128906 0.9375 -2.796875 0.9375 -2.421875 C 0.9375 -2.046875 1.015625 -1.710938 1.171875 -1.421875 C 1.328125 -1.128906 1.539062 -0.90625 1.8125 -0.75 C 2.082031 -0.601562 2.382812 -0.53125 2.71875 -0.53125 C 3.195312 -0.53125 3.585938 -0.671875 3.890625 -0.953125 C 4.191406 -1.234375 4.367188 -1.613281 4.421875 -2.09375 L 2.5 -2.09375 L 2.5 -2.609375 L 5.09375 -2.609375 L 5.09375 -2.125 C 5.0625 -1.726562 4.9375 -1.363281 4.71875 -1.03125 C 4.507812 -0.695312 4.226562 -0.429688 3.875 -0.234375 C 3.53125 -0.046875 3.144531 0.046875 2.71875 0.046875 C 2.269531 0.046875 1.859375 -0.0546875 1.484375 -0.265625 C 1.117188 -0.484375 0.828125 -0.78125 0.609375 -1.15625 C 0.398438 -1.53125 0.296875 -1.953125 0.296875 -2.421875 C 0.296875 -2.890625 0.398438 -3.3125 0.609375 -3.6875 C 0.828125 -4.070312 1.117188 -4.367188 1.484375 -4.578125 C 1.859375 -4.785156 2.269531 -4.890625 2.71875 -4.890625 C 3.238281 -4.890625 3.695312 -4.757812 4.09375 -4.5 C 4.488281 -4.25 4.773438 -3.894531 4.953125 -3.4375 Z M 4.203125 -3.4375 "/></g></g><g style="fill:#ffffff;fill-opacity:1;"><g transform="translate(86.117954, 53.640518)"><path style="stroke:none" d=""/></g></g><g style="fill:#ffffff;fill-opacity:1;"><g transform="translate(87.968224, 53.640518)"><path style="stroke:none" d="M 4.40625 0.921875 L 3.453125 -0.046875 C 3.210938 0.015625 2.96875 0.046875 2.71875 0.046875 C 2.269531 0.046875 1.859375 -0.0546875 1.484375 -0.265625 C 1.117188 -0.472656 0.828125 -0.765625 0.609375 -1.140625 C 0.398438 -1.523438 0.296875 -1.953125 0.296875 -2.421875 C 0.296875 -2.890625 0.398438 -3.3125 0.609375 -3.6875 C 0.828125 -4.070312 1.117188 -4.367188 1.484375 -4.578125 C 1.859375 -4.785156 2.269531 -4.890625 2.71875 -4.890625 C 3.175781 -4.890625 3.585938 -4.785156 3.953125 -4.578125 C 4.328125 -4.367188 4.617188 -4.078125 4.828125 -3.703125 C 5.046875 -3.328125 5.15625 -2.898438 5.15625 -2.421875 C 5.15625 -1.960938 5.050781 -1.546875 4.84375 -1.171875 C 4.644531 -0.804688 4.367188 -0.515625 4.015625 -0.296875 L 5.234375 0.921875 Z M 0.9375 -2.421875 C 0.9375 -2.035156 1.015625 -1.695312 1.171875 -1.40625 C 1.328125 -1.113281 1.539062 -0.890625 1.8125 -0.734375 C 2.082031 -0.578125 2.382812 -0.5 2.71875 -0.5 C 3.0625 -0.5 3.367188 -0.578125 3.640625 -0.734375 C 3.910156 -0.890625 4.125 -1.113281 4.28125 -1.40625 C 4.4375 -1.695312 4.515625 -2.035156 4.515625 -2.421875 C 4.515625 -2.804688 4.4375 -3.144531 4.28125 -3.4375 C 4.125 -3.726562 3.910156 -3.953125 3.640625 -4.109375 C 3.367188 -4.265625 3.0625 -4.34375 2.71875 -4.34375 C 2.382812 -4.34375 2.082031 -4.265625 1.8125 -4.109375 C 1.539062 -3.953125 1.328125 -3.726562 1.171875 -3.4375 C 1.015625 -3.144531 0.9375 -2.804688 0.9375 -2.421875 Z M 0.9375 -2.421875 "/></g></g><g style="fill:#ffffff;fill-opacity:1;"><g transform="translate(93.428946, 53.640518)"><path style="stroke:none" d="M 1.15625 -4.828125 L 1.15625 -1.78125 C 1.15625 -1.34375 1.257812 -1.019531 1.46875 -0.8125 C 1.675781 -0.601562 1.96875 -0.5 2.34375 -0.5 C 2.71875 -0.5 3.007812 -0.601562 3.21875 -0.8125 C 3.425781 -1.019531 3.53125 -1.34375 3.53125 -1.78125 L 3.53125 -4.828125 L 4.15625 -4.828125 L 4.15625 -1.78125 C 4.15625 -1.375 4.070312 -1.035156 3.90625 -0.765625 C 3.75 -0.492188 3.53125 -0.289062 3.25 -0.15625 C 2.976562 -0.0195312 2.675781 0.046875 2.34375 0.046875 C 2 0.046875 1.6875 -0.0195312 1.40625 -0.15625 C 1.132812 -0.289062 0.914062 -0.492188 0.75 -0.765625 C 0.59375 -1.035156 0.515625 -1.375 0.515625 -1.78125 L 0.515625 -4.828125 Z M 1.15625 -4.828125 "/></g></g><g style="fill:#ffffff;fill-opacity:1;"><g transform="translate(98.106595, 53.640518)"><path style="stroke:none" d="M 3.390625 -1.078125 L 1.28125 -1.078125 L 0.890625 0 L 0.234375 0 L 1.984375 -4.8125 L 2.703125 -4.8125 L 4.453125 0 L 3.78125 0 Z M 3.21875 -1.59375 L 2.34375 -4.03125 L 1.46875 -1.59375 Z M 3.21875 -1.59375 "/></g></g><g style="fill:#ffffff;fill-opacity:1;"><g transform="translate(102.777313, 53.640518)"><path style="stroke:none" d="M 1.171875 -0.515625 L 2.859375 -0.515625 L 2.859375 0 L 0.53125 0 L 0.53125 -4.828125 L 1.171875 -4.828125 Z M 1.171875 -0.515625 "/></g></g><g style="fill:#ffffff;fill-opacity:1;"><g transform="translate(105.771012, 53.640518)"><path style="stroke:none" d="M 1.171875 -4.828125 L 1.171875 0 L 0.53125 0 L 0.53125 -4.828125 Z M 1.171875 -4.828125 "/></g></g><g style="fill:#ffffff;fill-opacity:1;"><g transform="translate(107.47575, 53.640518)"><path style="stroke:none" d="M 3.515625 -4.828125 L 3.515625 -4.328125 L 2.1875 -4.328125 L 2.1875 0 L 1.5625 0 L 1.5625 -4.328125 L 0.234375 -4.328125 L 0.234375 -4.828125 Z M 3.515625 -4.828125 "/></g></g><g style="fill:#ffffff;fill-opacity:1;"><g transform="translate(111.224798, 53.640518)"><path style="stroke:none" d="M 3.921875 -4.828125 L 2.34375 -1.828125 L 2.34375 0 L 1.71875 0 L 1.71875 -1.828125 L 0.125 -4.828125 L 0.828125 -4.828125 L 2.03125 -2.390625 L 3.21875 -4.828125 Z M 3.921875 -4.828125 "/></g></g><g style="fill:#ffffff;fill-opacity:1;"><g transform="translate(115.271829, 53.640518)"><path style="stroke:none" d=""/></g></g><g style="fill:#ffffff;fill-opacity:1;"><g transform="translate(117.122105, 53.640518)"><path style="stroke:none" d="M 0.296875 -2.421875 C 0.296875 -2.890625 0.398438 -3.3125 0.609375 -3.6875 C 0.828125 -4.070312 1.117188 -4.367188 1.484375 -4.578125 C 1.859375 -4.785156 2.269531 -4.890625 2.71875 -4.890625 C 3.238281 -4.890625 3.695312 -4.765625 4.09375 -4.515625 C 4.488281 -4.265625 4.773438 -3.90625 4.953125 -3.4375 L 4.203125 -3.4375 C 4.066406 -3.726562 3.867188 -3.953125 3.609375 -4.109375 C 3.359375 -4.265625 3.0625 -4.34375 2.71875 -4.34375 C 2.375 -4.34375 2.066406 -4.265625 1.796875 -4.109375 C 1.535156 -3.953125 1.328125 -3.726562 1.171875 -3.4375 C 1.015625 -3.144531 0.9375 -2.804688 0.9375 -2.421875 C 0.9375 -2.035156 1.015625 -1.695312 1.171875 -1.40625 C 1.328125 -1.125 1.535156 -0.898438 1.796875 -0.734375 C 2.066406 -0.578125 2.375 -0.5 2.71875 -0.5 C 3.0625 -0.5 3.359375 -0.578125 3.609375 -0.734375 C 3.867188 -0.890625 4.066406 -1.113281 4.203125 -1.40625 L 4.953125 -1.40625 C 4.773438 -0.945312 4.488281 -0.585938 4.09375 -0.328125 C 3.695312 -0.078125 3.238281 0.046875 2.71875 0.046875 C 2.269531 0.046875 1.859375 -0.0546875 1.484375 -0.265625 C 1.117188 -0.484375 0.828125 -0.78125 0.609375 -1.15625 C 0.398438 -1.53125 0.296875 -1.953125 0.296875 -2.421875 Z M 0.296875 -2.421875 "/></g></g><g style="fill:#ffffff;fill-opacity:1;"><g transform="translate(122.471944, 53.640518)"><path style="stroke:none" d="M 3.390625 -1.078125 L 1.28125 -1.078125 L 0.890625 0 L 0.234375 0 L 1.984375 -4.8125 L 2.703125 -4.8125 L 4.453125 0 L 3.78125 0 Z M 3.21875 -1.59375 L 2.34375 -4.03125 L 1.46875 -1.59375 Z M 3.21875 -1.59375 "/></g></g><g style="fill:#ffffff;fill-opacity:1;"><g transform="translate(127.142664, 53.640518)"><path style="stroke:none" d="M 3.078125 0 L 1.921875 -1.984375 L 1.171875 -1.984375 L 1.171875 0 L 0.53125 0 L 0.53125 -4.828125 L 2.09375 -4.828125 C 2.457031 -4.828125 2.765625 -4.765625 3.015625 -4.640625 C 3.273438 -4.515625 3.46875 -4.347656 3.59375 -4.140625 C 3.71875 -3.929688 3.78125 -3.6875 3.78125 -3.40625 C 3.78125 -3.070312 3.679688 -2.78125 3.484375 -2.53125 C 3.296875 -2.28125 3.007812 -2.113281 2.625 -2.03125 L 3.84375 0 Z M 1.171875 -2.484375 L 2.09375 -2.484375 C 2.4375 -2.484375 2.691406 -2.566406 2.859375 -2.734375 C 3.035156 -2.898438 3.125 -3.125 3.125 -3.40625 C 3.125 -3.695312 3.035156 -3.921875 2.859375 -4.078125 C 2.691406 -4.234375 2.4375 -4.3125 2.09375 -4.3125 L 1.171875 -4.3125 Z M 1.171875 -2.484375 "/></g></g><g style="fill:#ffffff;fill-opacity:1;"><g transform="translate(131.356015, 53.640518)"><path style="stroke:none" d="M 1.171875 -4.328125 L 1.171875 -2.703125 L 2.921875 -2.703125 L 2.921875 -2.1875 L 1.171875 -2.1875 L 1.171875 -0.515625 L 3.140625 -0.515625 L 3.140625 0 L 0.53125 0 L 0.53125 -4.84375 L 3.140625 -4.84375 L 3.140625 -4.328125 Z M 1.171875 -4.328125 "/></g></g></g></svg>